<?xml version="1.0" encoding="utf-8"?>
<!-- Generator: Adobe Illustrator 23.0.0, SVG Export Plug-In . SVG Version: 6.00 Build 0)  -->
<svg version="1.1" id="Layer_1" xmlns="http://www.w3.org/2000/svg" xmlns:xlink="http://www.w3.org/1999/xlink" x="0px" y="0px"
	 viewBox="0 0 48 48" enable-background="new 0 0 48 48" xml:space="preserve">
<g>
	<path fill="currentColor" d="M33,47V36c0-2.4-0.9-4.7-2.6-6.4c-1.7-1.7-4-2.6-6.4-2.6c-5,0-9,4-9,9v11H5.1V17.4L24,1.3l18.9,16.1V47H33z
		"/>
	<path d="M24,2.6l15.2,13l2.7,2.3V46H34V36c0-2.7-1-5.2-2.9-7.1C29.2,27,26.7,26,24,26c-5.5,0-10,4.5-10,10v10H6.1V17.9l2.7-2.3
		L24,2.6 M24,0L7.5,14.1L4.1,17v31H16V36c0-4.4,3.6-8,8-8c2.2,0,4.2,0.9,5.7,2.3c1.4,1.5,2.3,3.5,2.3,5.7v12h11.9V17l-3.4-2.9L24,0
		L24,0z"/>
</g>
</svg>
